<svg xmlns="http://www.w3.org/2000/svg" viewBox="0 0 108 108" width="432" height="432">
  <g stroke="#D2A94F" stroke-width="5">
    <line x1="54" y1="45" x2="54" y2="36"></line>
    <line x1="54" y1="45" x2="54" y2="36" transform="rotate(20 54 64)"></line>
    <line x1="54" y1="45" x2="54" y2="36" transform="rotate(-20 54 64)"></line>
    <line x1="54" y1="45" x2="54" y2="36" transform="rotate(40 54 64)"></line>
    <line x1="54" y1="45" x2="54" y2="36" transform="rotate(-40 54 64)"></line>
    <line x1="54" y1="45" x2="54" y2="36" transform="rotate(60 54 64)"></line>
    <line x1="54" y1="45" x2="54" y2="36" transform="rotate(-60 54 64)"></line>
    <line x1="54" y1="45" x2="54" y2="36" transform="rotate(80 54 64)"></line>
    <line x1="54" y1="45" x2="54" y2="36" transform="rotate(-80 54 64)"></line>
  </g>
  <path d="M42 64 A12 12 0 0 1 66 64 Z" fill="#D2A94F"></path>
  <line x1="37" y1="71" x2="71" y2="71" stroke="#D2A94F" stroke-width="3.5"></line>
  <line x1="43" y1="77" x2="65" y2="77" stroke="#D2A94F" stroke-width="3.5"></line>
</svg>